<?xml version="1.0" encoding="UTF-8"?>
<svg width="20px" height="19px" viewBox="0 0 18 19" version="1.1" xmlns="http://www.w3.org/2000/svg"
	 xmlns:xlink="http://www.w3.org/1999/xlink">
	<!-- Generator: Sketch 52.6 (67491) - http://www.bohemiancoding.com/sketch -->
	<title>Group 5</title>
	<desc>Created with Sketch.</desc>
	<g id="Page-1" stroke="none" stroke-width="1" fill="none" fill-rule="evenodd">
		<g id="2" transform="translate(-210.000000, -494.000000)">
			<g id="Group-5" transform="translate(211.000000, 495.500000)">
				<circle id="Oval" stroke="#000000" stroke-width="1.1" fill-rule="nonzero" cx="8" cy="8" r="8"></circle>
				<path
					d="M11.8117446,6.33309609 C11.8710529,6.14519573 11.8117446,6.00854093 11.5490938,6.00854093 L10.6764152,6.00854093 C10.4561273,6.00854093 10.3544561,6.12811388 10.2951478,6.25622776 C10.2951478,6.25622776 9.84609957,7.34946619 9.21912657,8.05836299 C9.01578398,8.2633452 8.92258529,8.3316726 8.81244138,8.3316726 C8.75313313,8.3316726 8.67687965,8.2633452 8.67687965,8.07544484 L8.67687965,6.32455516 C8.67687965,6.1024911 8.60909879,6 8.42270141,6 L7.0501389,6 C6.91457718,6 6.82985109,6.1024911 6.82985109,6.20498221 C6.82985109,6.41850534 7.14333759,6.46975089 7.17722803,7.06761566 L7.17722803,8.3658363 C7.17722803,8.64768683 7.12639238,8.69893238 7.01624847,8.69893238 C6.71970719,8.69893238 5.9995355,7.59715302 5.56743249,6.34163701 C5.48270641,6.09395018 5.39798033,6 5.17769252,6 L4.29654128,6 C4.04236304,6 4,6.11957295 4,6.24768683 C4,6.47829181 4.29654128,7.63985765 5.38103511,9.1772242 C6.1012068,10.227758 7.12639238,10.7914591 8.04990666,10.7914591 C8.60909879,10.7914591 8.67687965,10.6633452 8.67687965,10.4498221 L8.67687965,9.65551601 C8.67687965,9.39928826 8.7277153,9.35658363 8.90564007,9.35658363 C9.03272919,9.35658363 9.26148961,9.42491103 9.7783187,9.92882562 C10.3714013,10.5266904 10.4730726,10.8 10.8035043,10.8 L11.6761829,10.8 C11.9303612,10.8 12.0489777,10.6718861 11.9811968,10.4241993 C11.9049433,10.1765125 11.6168747,9.81779359 11.2440799,9.39074733 C11.0407373,9.15160142 10.7357234,8.88683274 10.6425247,8.75871886 C10.5154356,8.58790036 10.549326,8.51957295 10.6425247,8.3658363 C10.6340521,8.3658363 11.7016007,6.8455516 11.8117446,6.33309609"
					id="Path" fill="#000000"></path>
			</g>
		</g>
	</g>
</svg>
